<svg width="445" height="72" viewBox="0 0 445 72" fill="none" xmlns="http://www.w3.org/2000/svg">
<g filter="url(#filter0_d_2012_111)">
<path d="M86.7223 36V0.999998H93.9223V36H86.7223ZM98.1148 36V0.999998H104.715L117.94 20.175C118.107 20.4417 118.348 20.8417 118.665 21.375C118.982 21.9083 119.223 22.375 119.39 22.775C119.34 22.425 119.298 21.975 119.265 21.425C119.248 20.8583 119.24 20.4333 119.24 20.15V0.999998H126.39V36H120.065L106.565 16.675C106.382 16.4083 106.132 16 105.815 15.45C105.515 14.9 105.273 14.425 105.09 14.025C105.157 14.4583 105.19 14.925 105.19 15.425C105.207 15.9083 105.215 16.325 105.215 16.675V36H98.1148ZM138.301 36V7.9H128.301V0.999998H155.526V7.9H145.501V36H138.301ZM157.423 36V0.999998H182.023V7.825H164.623V14.525H174.548V21.35H164.623V29.125H183.048V36H157.423ZM185.418 36V0.999998H192.618V29.05H209.443V36H185.418ZM210.336 36V0.999998H217.536V29.05H234.361V36H210.336ZM235.254 36V0.999998H242.454V36H235.254Z" fill="#E3E3E3"/>
<path d="M251.494 36L251.244 0.999998H255.494V24.7C255.494 25.0167 255.494 25.4083 255.494 25.875C255.494 26.3417 255.494 26.7667 255.494 27.15C255.644 26.7667 255.802 26.375 255.969 25.975C256.152 25.5583 256.327 25.15 256.494 24.75L266.944 0.999998H270.394L272.544 25C272.577 25.2667 272.61 25.6417 272.644 26.125C272.677 26.5917 272.694 26.9667 272.694 27.25C272.794 26.95 272.91 26.5917 273.044 26.175C273.194 25.7583 273.327 25.4 273.444 25.1L282.144 0.999998H286.744L273.744 36H269.844L267.469 12.05C267.452 11.8167 267.427 11.5917 267.394 11.375C267.377 11.1417 267.36 10.9 267.344 10.65C267.327 10.3833 267.31 10.1 267.294 9.8C267.227 10.0167 267.119 10.3167 266.969 10.7C266.819 11.0667 266.66 11.4167 266.494 11.75L255.344 36H251.494ZM279.534 36L297.634 0.999998H301.384L307.284 36H302.984L301.584 27.4H288.484L284.084 36H279.534ZM290.434 23.55H300.984L298.884 10.6C298.834 10.3333 298.776 10 298.709 9.6C298.643 9.2 298.584 8.80833 298.534 8.425C298.484 8.04167 298.451 7.75 298.434 7.55C298.351 7.75 298.226 8.04167 298.059 8.425C297.893 8.79166 297.718 9.175 297.534 9.575C297.351 9.95833 297.184 10.2833 297.034 10.55L290.434 23.55ZM309.73 36L315.88 0.999998H327.98C329.913 0.999998 331.521 1.275 332.805 1.825C334.105 2.375 335.138 3.10833 335.905 4.025C336.688 4.925 337.246 5.91667 337.58 7C337.913 8.06666 338.08 9.11667 338.08 10.15C338.08 11.3 337.896 12.45 337.53 13.6C337.18 14.7333 336.613 15.7917 335.83 16.775C335.063 17.7583 334.071 18.6 332.855 19.3C331.638 19.9833 330.163 20.45 328.43 20.7L333.48 36H328.93L324.03 20.9H316.73L314.08 36H309.73ZM317.43 16.95H326.13C328.146 16.95 329.713 16.6 330.83 15.9C331.946 15.2 332.721 14.3417 333.155 13.325C333.605 12.2917 333.83 11.2833 333.83 10.3C333.83 9.43333 333.638 8.59167 333.255 7.775C332.871 6.95833 332.23 6.28333 331.33 5.75C330.446 5.21666 329.238 4.95 327.705 4.95H319.53L317.43 16.95ZM338.017 36L344.167 0.999998H364.317L363.667 4.95H347.817L345.917 15.9H356.217L355.467 19.85H345.217L343.067 32.05H359.967L359.267 36H338.017Z" fill="#51D55A"/>
</g>
<path d="M111.144 58V49.516H112.188V58H111.144ZM114.033 58V51.676H115.017L115.065 52.636C115.209 52.404 115.393 52.212 115.617 52.06C115.841 51.908 116.085 51.796 116.349 51.724C116.621 51.644 116.885 51.604 117.141 51.604C117.757 51.604 118.237 51.732 118.581 51.988C118.933 52.244 119.181 52.592 119.325 53.032C119.477 53.464 119.553 53.956 119.553 54.508V58H118.533V54.784C118.533 54.488 118.513 54.204 118.473 53.932C118.441 53.66 118.369 53.416 118.257 53.2C118.153 52.984 118.001 52.816 117.801 52.696C117.601 52.568 117.333 52.504 116.997 52.504C116.581 52.504 116.225 52.62 115.929 52.852C115.641 53.084 115.421 53.396 115.269 53.788C115.125 54.18 115.053 54.62 115.053 55.108V58H114.033ZM123.498 58.072C122.834 58.072 122.366 57.892 122.094 57.532C121.83 57.172 121.698 56.66 121.698 55.996V52.576H120.666V51.676H121.698V49.78H122.718V51.676H124.662V52.576H122.718V55.864C122.718 56.104 122.738 56.324 122.778 56.524C122.818 56.716 122.902 56.872 123.03 56.992C123.158 57.104 123.35 57.164 123.606 57.172C123.79 57.172 123.95 57.14 124.086 57.076C124.23 57.012 124.35 56.936 124.446 56.848L124.89 57.592C124.754 57.704 124.61 57.796 124.458 57.868C124.314 57.94 124.162 57.992 124.002 58.024C123.85 58.056 123.682 58.072 123.498 58.072ZM128.616 58.072C127.944 58.072 127.388 57.936 126.948 57.664C126.508 57.384 126.18 57 125.964 56.512C125.748 56.024 125.64 55.468 125.64 54.844C125.64 54.212 125.752 53.656 125.976 53.176C126.208 52.688 126.544 52.304 126.984 52.024C127.424 51.744 127.964 51.604 128.604 51.604C129.1 51.604 129.524 51.7 129.876 51.892C130.236 52.076 130.532 52.324 130.764 52.636C130.996 52.948 131.164 53.292 131.268 53.668C131.372 54.036 131.416 54.408 131.4 54.784C131.392 54.856 131.384 54.928 131.376 55C131.376 55.072 131.372 55.144 131.364 55.216H126.672C126.704 55.584 126.796 55.916 126.948 56.212C127.1 56.508 127.316 56.744 127.596 56.92C127.876 57.088 128.224 57.172 128.64 57.172C128.848 57.172 129.056 57.148 129.264 57.1C129.48 57.044 129.672 56.952 129.84 56.824C130.016 56.696 130.14 56.524 130.212 56.308H131.256C131.16 56.716 130.98 57.052 130.716 57.316C130.452 57.572 130.136 57.764 129.768 57.892C129.4 58.012 129.016 58.072 128.616 58.072ZM126.696 54.328H130.356C130.348 53.968 130.268 53.652 130.116 53.38C129.964 53.108 129.756 52.896 129.492 52.744C129.236 52.592 128.928 52.516 128.568 52.516C128.176 52.516 127.844 52.6 127.572 52.768C127.308 52.936 127.104 53.156 126.96 53.428C126.816 53.7 126.728 54 126.696 54.328ZM132.759 58V49.516H133.779V58H132.759ZM135.384 58V49.516H136.404V58H135.384ZM138.009 58V51.676H139.029V58H138.009ZM138.513 50.74C138.305 50.74 138.137 50.676 138.009 50.548C137.889 50.42 137.829 50.256 137.829 50.056C137.829 49.856 137.893 49.696 138.021 49.576C138.149 49.448 138.313 49.384 138.513 49.384C138.697 49.384 138.857 49.448 138.993 49.576C139.137 49.704 139.209 49.864 139.209 50.056C139.209 50.256 139.141 50.42 139.005 50.548C138.869 50.676 138.705 50.74 138.513 50.74ZM143.382 60.832C142.95 60.832 142.55 60.764 142.182 60.628C141.814 60.5 141.502 60.296 141.246 60.016C140.99 59.736 140.818 59.38 140.73 58.948H141.786C141.85 59.188 141.97 59.38 142.146 59.524C142.322 59.668 142.526 59.768 142.758 59.824C142.99 59.888 143.218 59.92 143.442 59.92C143.874 59.92 144.222 59.832 144.486 59.656C144.758 59.488 144.954 59.252 145.074 58.948C145.194 58.652 145.254 58.312 145.254 57.928V57.052C145.118 57.292 144.938 57.488 144.714 57.64C144.49 57.792 144.246 57.904 143.982 57.976C143.718 58.04 143.446 58.072 143.166 58.072C142.526 58.072 142.002 57.932 141.594 57.652C141.186 57.364 140.882 56.98 140.682 56.5C140.49 56.012 140.394 55.464 140.394 54.856C140.394 54.248 140.494 53.7 140.694 53.212C140.894 52.716 141.202 52.324 141.618 52.036C142.034 51.748 142.566 51.604 143.214 51.604C143.582 51.604 143.954 51.672 144.33 51.808C144.706 51.944 145.014 52.164 145.254 52.468L145.302 51.676H146.274V57.952C146.274 58.544 146.166 59.056 145.95 59.488C145.742 59.92 145.422 60.252 144.99 60.484C144.566 60.716 144.03 60.832 143.382 60.832ZM143.31 57.172C143.734 57.172 144.09 57.064 144.378 56.848C144.666 56.632 144.886 56.344 145.038 55.984C145.19 55.624 145.266 55.232 145.266 54.808C145.266 54.368 145.19 53.976 145.038 53.632C144.894 53.288 144.678 53.016 144.39 52.816C144.102 52.616 143.738 52.516 143.298 52.516C142.842 52.516 142.474 52.62 142.194 52.828C141.922 53.036 141.722 53.316 141.594 53.668C141.474 54.02 141.414 54.412 141.414 54.844C141.414 55.292 141.478 55.692 141.606 56.044C141.734 56.396 141.938 56.672 142.218 56.872C142.498 57.072 142.862 57.172 143.31 57.172ZM150.612 58.072C149.94 58.072 149.384 57.936 148.944 57.664C148.504 57.384 148.176 57 147.96 56.512C147.744 56.024 147.636 55.468 147.636 54.844C147.636 54.212 147.748 53.656 147.972 53.176C148.204 52.688 148.54 52.304 148.98 52.024C149.42 51.744 149.96 51.604 150.6 51.604C151.096 51.604 151.52 51.7 151.872 51.892C152.232 52.076 152.528 52.324 152.76 52.636C152.992 52.948 153.16 53.292 153.264 53.668C153.368 54.036 153.412 54.408 153.396 54.784C153.388 54.856 153.38 54.928 153.372 55C153.372 55.072 153.368 55.144 153.36 55.216H148.668C148.7 55.584 148.792 55.916 148.944 56.212C149.096 56.508 149.312 56.744 149.592 56.92C149.872 57.088 150.22 57.172 150.636 57.172C150.844 57.172 151.052 57.148 151.26 57.1C151.476 57.044 151.668 56.952 151.836 56.824C152.012 56.696 152.136 56.524 152.208 56.308H153.252C153.156 56.716 152.976 57.052 152.712 57.316C152.448 57.572 152.132 57.764 151.764 57.892C151.396 58.012 151.012 58.072 150.612 58.072ZM148.692 54.328H152.352C152.344 53.968 152.264 53.652 152.112 53.38C151.96 53.108 151.752 52.896 151.488 52.744C151.232 52.592 150.924 52.516 150.564 52.516C150.172 52.516 149.84 52.6 149.568 52.768C149.304 52.936 149.1 53.156 148.956 53.428C148.812 53.7 148.724 54 148.692 54.328ZM154.755 58V51.676H155.739L155.787 52.636C155.931 52.404 156.115 52.212 156.339 52.06C156.563 51.908 156.807 51.796 157.071 51.724C157.343 51.644 157.607 51.604 157.863 51.604C158.479 51.604 158.959 51.732 159.303 51.988C159.655 52.244 159.903 52.592 160.047 53.032C160.199 53.464 160.275 53.956 160.275 54.508V58H159.255V54.784C159.255 54.488 159.235 54.204 159.195 53.932C159.163 53.66 159.091 53.416 158.979 53.2C158.875 52.984 158.723 52.816 158.523 52.696C158.323 52.568 158.055 52.504 157.719 52.504C157.303 52.504 156.947 52.62 156.651 52.852C156.363 53.084 156.143 53.396 155.991 53.788C155.847 54.18 155.775 54.62 155.775 55.108V58H154.755ZM164.221 58.072C163.557 58.072 163.089 57.892 162.817 57.532C162.553 57.172 162.421 56.66 162.421 55.996V52.576H161.389V51.676H162.421V49.78H163.441V51.676H165.385V52.576H163.441V55.864C163.441 56.104 163.461 56.324 163.501 56.524C163.541 56.716 163.625 56.872 163.753 56.992C163.881 57.104 164.073 57.164 164.329 57.172C164.513 57.172 164.673 57.14 164.809 57.076C164.953 57.012 165.073 56.936 165.169 56.848L165.613 57.592C165.477 57.704 165.333 57.796 165.181 57.868C165.037 57.94 164.885 57.992 164.725 58.024C164.573 58.056 164.405 58.072 164.221 58.072ZM170.79 58L168.486 49.516H169.662L171.594 57.1L173.442 49.516H175.038L176.886 57.1L178.818 49.516H179.946L177.642 58H176.058L174.21 50.512L172.362 58H170.79ZM182.529 58.072C182.241 58.072 181.961 58.036 181.689 57.964C181.425 57.884 181.185 57.768 180.969 57.616C180.761 57.456 180.593 57.26 180.465 57.028C180.345 56.788 180.285 56.512 180.285 56.2C180.285 55.84 180.349 55.536 180.477 55.288C180.613 55.04 180.793 54.844 181.017 54.7C181.241 54.556 181.501 54.452 181.797 54.388C182.093 54.324 182.401 54.292 182.721 54.292H184.581C184.581 53.932 184.529 53.62 184.425 53.356C184.329 53.092 184.169 52.888 183.945 52.744C183.721 52.592 183.425 52.516 183.057 52.516C182.833 52.516 182.625 52.54 182.433 52.588C182.241 52.636 182.077 52.712 181.941 52.816C181.805 52.92 181.705 53.06 181.641 53.236H180.549C180.605 52.948 180.713 52.704 180.873 52.504C181.041 52.296 181.241 52.128 181.473 52C181.713 51.864 181.969 51.764 182.241 51.7C182.513 51.636 182.785 51.604 183.057 51.604C183.969 51.604 184.617 51.872 185.001 52.408C185.385 52.944 185.577 53.668 185.577 54.58V58H184.725L184.665 57.196C184.489 57.436 184.277 57.62 184.029 57.748C183.781 57.876 183.525 57.96 183.261 58C183.005 58.048 182.761 58.072 182.529 58.072ZM182.625 57.172C183.025 57.172 183.369 57.108 183.657 56.98C183.953 56.844 184.181 56.648 184.341 56.392C184.501 56.136 184.581 55.824 184.581 55.456V55.144H183.465C183.201 55.144 182.941 55.148 182.685 55.156C182.429 55.164 182.197 55.196 181.989 55.252C181.781 55.308 181.613 55.404 181.485 55.54C181.365 55.676 181.305 55.872 181.305 56.128C181.305 56.368 181.365 56.564 181.485 56.716C181.613 56.868 181.777 56.984 181.977 57.064C182.185 57.136 182.401 57.172 182.625 57.172ZM187.158 58V51.676H188.142L188.19 52.66C188.35 52.412 188.534 52.212 188.742 52.06C188.958 51.908 189.194 51.796 189.45 51.724C189.714 51.644 189.998 51.604 190.302 51.604C190.358 51.604 190.41 51.604 190.458 51.604C190.514 51.604 190.57 51.604 190.626 51.604V52.564H190.254C189.758 52.564 189.354 52.672 189.042 52.888C188.738 53.096 188.518 53.38 188.382 53.74C188.246 54.092 188.178 54.484 188.178 54.916V58H187.158ZM194.253 58.072C193.581 58.072 193.025 57.936 192.585 57.664C192.145 57.384 191.817 57 191.601 56.512C191.385 56.024 191.277 55.468 191.277 54.844C191.277 54.212 191.389 53.656 191.613 53.176C191.845 52.688 192.181 52.304 192.621 52.024C193.061 51.744 193.601 51.604 194.241 51.604C194.737 51.604 195.161 51.7 195.513 51.892C195.873 52.076 196.169 52.324 196.401 52.636C196.633 52.948 196.801 53.292 196.905 53.668C197.009 54.036 197.053 54.408 197.037 54.784C197.029 54.856 197.021 54.928 197.013 55C197.013 55.072 197.009 55.144 197.001 55.216H192.309C192.341 55.584 192.433 55.916 192.585 56.212C192.737 56.508 192.953 56.744 193.233 56.92C193.513 57.088 193.861 57.172 194.277 57.172C194.485 57.172 194.693 57.148 194.901 57.1C195.117 57.044 195.309 56.952 195.477 56.824C195.653 56.696 195.777 56.524 195.849 56.308H196.893C196.797 56.716 196.617 57.052 196.353 57.316C196.089 57.572 195.773 57.764 195.405 57.892C195.037 58.012 194.653 58.072 194.253 58.072ZM192.333 54.328H195.993C195.985 53.968 195.905 53.652 195.753 53.38C195.601 53.108 195.393 52.896 195.129 52.744C194.873 52.592 194.565 52.516 194.205 52.516C193.813 52.516 193.481 52.6 193.209 52.768C192.945 52.936 192.741 53.156 192.597 53.428C192.453 53.7 192.365 54 192.333 54.328ZM198.396 58V49.516H199.416V52.648C199.568 52.424 199.752 52.236 199.968 52.084C200.192 51.924 200.436 51.804 200.7 51.724C200.964 51.644 201.236 51.604 201.516 51.604C202.132 51.604 202.612 51.732 202.956 51.988C203.308 52.244 203.556 52.592 203.7 53.032C203.844 53.464 203.916 53.96 203.916 54.52V58H202.896V54.832C202.896 54.552 202.876 54.276 202.836 54.004C202.804 53.724 202.736 53.472 202.632 53.248C202.528 53.024 202.368 52.844 202.152 52.708C201.944 52.572 201.66 52.504 201.3 52.504C200.956 52.504 200.66 52.58 200.412 52.732C200.172 52.884 199.98 53.088 199.836 53.344C199.692 53.592 199.584 53.868 199.512 54.172C199.448 54.468 199.416 54.76 199.416 55.048V58H198.396ZM208.246 58.072C207.582 58.072 207.026 57.936 206.578 57.664C206.13 57.384 205.794 57 205.57 56.512C205.354 56.024 205.246 55.468 205.246 54.844C205.246 54.212 205.358 53.656 205.582 53.176C205.806 52.688 206.142 52.304 206.59 52.024C207.038 51.744 207.598 51.604 208.27 51.604C208.934 51.604 209.486 51.744 209.926 52.024C210.374 52.304 210.706 52.688 210.922 53.176C211.146 53.656 211.258 54.212 211.258 54.844C211.258 55.468 211.146 56.024 210.922 56.512C210.698 57 210.362 57.384 209.914 57.664C209.474 57.936 208.918 58.072 208.246 58.072ZM208.246 57.172C208.71 57.172 209.086 57.068 209.374 56.86C209.67 56.652 209.886 56.372 210.022 56.02C210.166 55.668 210.238 55.276 210.238 54.844C210.238 54.412 210.166 54.02 210.022 53.668C209.886 53.316 209.67 53.036 209.374 52.828C209.086 52.62 208.71 52.516 208.246 52.516C207.79 52.516 207.414 52.62 207.118 52.828C206.83 53.036 206.614 53.316 206.47 53.668C206.334 54.02 206.266 54.412 206.266 54.844C206.266 55.276 206.334 55.668 206.47 56.02C206.614 56.372 206.83 56.652 207.118 56.86C207.414 57.068 207.79 57.172 208.246 57.172ZM215.262 58.072C214.39 58.072 213.726 57.84 213.27 57.376C212.822 56.912 212.598 56.2 212.598 55.24V51.676H213.618V55.192C213.618 55.608 213.678 55.964 213.798 56.26C213.918 56.556 214.098 56.784 214.338 56.944C214.586 57.096 214.894 57.172 215.262 57.172C215.646 57.172 215.962 57.096 216.21 56.944C216.458 56.784 216.638 56.556 216.75 56.26C216.87 55.964 216.93 55.608 216.93 55.192V51.676H217.95V55.24C217.95 56.2 217.718 56.912 217.254 57.376C216.798 57.84 216.134 58.072 215.262 58.072ZM221.84 58.072C221.552 58.072 221.26 58.044 220.964 57.988C220.676 57.932 220.404 57.836 220.148 57.7C219.9 57.564 219.692 57.38 219.524 57.148C219.356 56.916 219.248 56.628 219.2 56.284H220.232C220.312 56.5 220.44 56.676 220.616 56.812C220.8 56.94 221.004 57.032 221.228 57.088C221.46 57.144 221.68 57.172 221.888 57.172C222.016 57.172 222.164 57.164 222.332 57.148C222.5 57.132 222.66 57.096 222.812 57.04C222.972 56.976 223.1 56.884 223.196 56.764C223.3 56.644 223.352 56.476 223.352 56.26C223.352 56.1 223.316 55.968 223.244 55.864C223.172 55.76 223.072 55.676 222.944 55.612C222.816 55.54 222.66 55.488 222.476 55.456C222.1 55.376 221.696 55.3 221.264 55.228C220.84 55.156 220.464 55.02 220.136 54.82C220.024 54.748 219.92 54.668 219.824 54.58C219.736 54.484 219.66 54.38 219.596 54.268C219.532 54.148 219.48 54.02 219.44 53.884C219.408 53.74 219.392 53.584 219.392 53.416C219.392 53.104 219.452 52.836 219.572 52.612C219.7 52.38 219.876 52.192 220.1 52.048C220.324 51.896 220.58 51.784 220.868 51.712C221.164 51.64 221.48 51.604 221.816 51.604C222.232 51.604 222.604 51.672 222.932 51.808C223.268 51.936 223.544 52.128 223.76 52.384C223.976 52.632 224.104 52.94 224.144 53.308H223.196C223.14 53.076 222.988 52.888 222.74 52.744C222.492 52.592 222.176 52.516 221.792 52.516C221.664 52.516 221.52 52.528 221.36 52.552C221.2 52.568 221.048 52.608 220.904 52.672C220.76 52.728 220.64 52.816 220.544 52.936C220.448 53.048 220.4 53.2 220.4 53.392C220.4 53.568 220.444 53.716 220.532 53.836C220.628 53.956 220.76 54.052 220.928 54.124C221.096 54.196 221.288 54.256 221.504 54.304C221.784 54.36 222.092 54.42 222.428 54.484C222.764 54.54 223.028 54.6 223.22 54.664C223.476 54.744 223.688 54.856 223.856 55C224.032 55.144 224.16 55.316 224.24 55.516C224.328 55.716 224.372 55.948 224.372 56.212C224.372 56.588 224.296 56.896 224.144 57.136C224 57.376 223.804 57.564 223.556 57.7C223.308 57.836 223.032 57.932 222.728 57.988C222.432 58.044 222.136 58.072 221.84 58.072ZM228.378 58.072C227.706 58.072 227.15 57.936 226.71 57.664C226.27 57.384 225.942 57 225.726 56.512C225.51 56.024 225.402 55.468 225.402 54.844C225.402 54.212 225.514 53.656 225.738 53.176C225.97 52.688 226.306 52.304 226.746 52.024C227.186 51.744 227.726 51.604 228.366 51.604C228.862 51.604 229.286 51.7 229.638 51.892C229.998 52.076 230.294 52.324 230.526 52.636C230.758 52.948 230.926 53.292 231.03 53.668C231.134 54.036 231.178 54.408 231.162 54.784C231.154 54.856 231.146 54.928 231.138 55C231.138 55.072 231.134 55.144 231.126 55.216H226.434C226.466 55.584 226.558 55.916 226.71 56.212C226.862 56.508 227.078 56.744 227.358 56.92C227.638 57.088 227.986 57.172 228.402 57.172C228.61 57.172 228.818 57.148 229.026 57.1C229.242 57.044 229.434 56.952 229.602 56.824C229.778 56.696 229.902 56.524 229.974 56.308H231.018C230.922 56.716 230.742 57.052 230.478 57.316C230.214 57.572 229.898 57.764 229.53 57.892C229.162 58.012 228.778 58.072 228.378 58.072ZM226.458 54.328H230.118C230.11 53.968 230.03 53.652 229.878 53.38C229.726 53.108 229.518 52.896 229.254 52.744C228.998 52.592 228.69 52.516 228.33 52.516C227.938 52.516 227.606 52.6 227.334 52.768C227.07 52.936 226.866 53.156 226.722 53.428C226.578 53.7 226.49 54 226.458 54.328ZM235.995 58V49.516H237.039V58H235.995ZM238.884 58V51.676H239.868L239.916 52.636C240.06 52.404 240.244 52.212 240.468 52.06C240.692 51.908 240.936 51.796 241.2 51.724C241.472 51.644 241.736 51.604 241.992 51.604C242.608 51.604 243.088 51.732 243.432 51.988C243.784 52.244 244.032 52.592 244.176 53.032C244.328 53.464 244.404 53.956 244.404 54.508V58H243.384V54.784C243.384 54.488 243.364 54.204 243.324 53.932C243.292 53.66 243.22 53.416 243.108 53.2C243.004 52.984 242.852 52.816 242.652 52.696C242.452 52.568 242.184 52.504 241.848 52.504C241.432 52.504 241.076 52.62 240.78 52.852C240.492 53.084 240.272 53.396 240.12 53.788C239.976 54.18 239.904 54.62 239.904 55.108V58H238.884ZM247.69 58L245.254 51.676H246.406L248.398 57.016L250.354 51.676H251.518L249.082 58H247.69ZM255.144 58.072C254.472 58.072 253.916 57.936 253.476 57.664C253.036 57.384 252.708 57 252.492 56.512C252.276 56.024 252.168 55.468 252.168 54.844C252.168 54.212 252.28 53.656 252.504 53.176C252.736 52.688 253.072 52.304 253.512 52.024C253.952 51.744 254.492 51.604 255.132 51.604C255.628 51.604 256.052 51.7 256.404 51.892C256.764 52.076 257.06 52.324 257.292 52.636C257.524 52.948 257.692 53.292 257.796 53.668C257.9 54.036 257.944 54.408 257.928 54.784C257.92 54.856 257.912 54.928 257.904 55C257.904 55.072 257.9 55.144 257.892 55.216H253.2C253.232 55.584 253.324 55.916 253.476 56.212C253.628 56.508 253.844 56.744 254.124 56.92C254.404 57.088 254.752 57.172 255.168 57.172C255.376 57.172 255.584 57.148 255.792 57.1C256.008 57.044 256.2 56.952 256.368 56.824C256.544 56.696 256.668 56.524 256.74 56.308H257.784C257.688 56.716 257.508 57.052 257.244 57.316C256.98 57.572 256.664 57.764 256.296 57.892C255.928 58.012 255.544 58.072 255.144 58.072ZM253.224 54.328H256.884C256.876 53.968 256.796 53.652 256.644 53.38C256.492 53.108 256.284 52.896 256.02 52.744C255.764 52.592 255.456 52.516 255.096 52.516C254.704 52.516 254.372 52.6 254.1 52.768C253.836 52.936 253.632 53.156 253.488 53.428C253.344 53.7 253.256 54 253.224 54.328ZM259.286 58V51.676H260.27L260.318 52.636C260.462 52.404 260.646 52.212 260.87 52.06C261.094 51.908 261.338 51.796 261.602 51.724C261.874 51.644 262.138 51.604 262.394 51.604C263.01 51.604 263.49 51.732 263.834 51.988C264.186 52.244 264.434 52.592 264.578 53.032C264.73 53.464 264.806 53.956 264.806 54.508V58H263.786V54.784C263.786 54.488 263.766 54.204 263.726 53.932C263.694 53.66 263.622 53.416 263.51 53.2C263.406 52.984 263.254 52.816 263.054 52.696C262.854 52.568 262.586 52.504 262.25 52.504C261.834 52.504 261.478 52.62 261.182 52.852C260.894 53.084 260.674 53.396 260.522 53.788C260.378 54.18 260.306 54.62 260.306 55.108V58H259.286ZM268.752 58.072C268.088 58.072 267.62 57.892 267.348 57.532C267.084 57.172 266.952 56.66 266.952 55.996V52.576H265.92V51.676H266.952V49.78H267.972V51.676H269.916V52.576H267.972V55.864C267.972 56.104 267.992 56.324 268.032 56.524C268.072 56.716 268.156 56.872 268.284 56.992C268.412 57.104 268.604 57.164 268.86 57.172C269.044 57.172 269.204 57.14 269.34 57.076C269.484 57.012 269.604 56.936 269.7 56.848L270.144 57.592C270.008 57.704 269.864 57.796 269.712 57.868C269.568 57.94 269.416 57.992 269.256 58.024C269.104 58.056 268.936 58.072 268.752 58.072ZM273.894 58.072C273.23 58.072 272.674 57.936 272.226 57.664C271.778 57.384 271.442 57 271.218 56.512C271.002 56.024 270.894 55.468 270.894 54.844C270.894 54.212 271.006 53.656 271.23 53.176C271.454 52.688 271.79 52.304 272.238 52.024C272.686 51.744 273.246 51.604 273.918 51.604C274.582 51.604 275.134 51.744 275.574 52.024C276.022 52.304 276.354 52.688 276.57 53.176C276.794 53.656 276.906 54.212 276.906 54.844C276.906 55.468 276.794 56.024 276.57 56.512C276.346 57 276.01 57.384 275.562 57.664C275.122 57.936 274.566 58.072 273.894 58.072ZM273.894 57.172C274.358 57.172 274.734 57.068 275.022 56.86C275.318 56.652 275.534 56.372 275.67 56.02C275.814 55.668 275.886 55.276 275.886 54.844C275.886 54.412 275.814 54.02 275.67 53.668C275.534 53.316 275.318 53.036 275.022 52.828C274.734 52.62 274.358 52.516 273.894 52.516C273.438 52.516 273.062 52.62 272.766 52.828C272.478 53.036 272.262 53.316 272.118 53.668C271.982 54.02 271.914 54.412 271.914 54.844C271.914 55.276 271.982 55.668 272.118 56.02C272.262 56.372 272.478 56.652 272.766 56.86C273.062 57.068 273.438 57.172 273.894 57.172ZM278.271 58V51.676H279.255L279.303 52.66C279.463 52.412 279.647 52.212 279.855 52.06C280.071 51.908 280.307 51.796 280.563 51.724C280.827 51.644 281.111 51.604 281.415 51.604C281.471 51.604 281.523 51.604 281.571 51.604C281.627 51.604 281.683 51.604 281.739 51.604V52.564H281.367C280.871 52.564 280.467 52.672 280.155 52.888C279.851 53.096 279.631 53.38 279.495 53.74C279.359 54.092 279.291 54.484 279.291 54.916V58H278.271ZM285.531 60.832C285.043 60.832 284.571 60.764 284.115 60.628C283.667 60.492 283.263 60.256 282.903 59.92L283.347 59.116C283.659 59.364 283.991 59.56 284.343 59.704C284.703 59.848 285.079 59.92 285.471 59.92C286.127 59.92 286.595 59.728 286.875 59.344C287.163 58.968 287.307 58.488 287.307 57.904V57.148C287.163 57.364 286.979 57.544 286.755 57.688C286.539 57.824 286.299 57.928 286.035 58C285.771 58.064 285.499 58.096 285.219 58.096C284.595 58.096 284.103 57.972 283.743 57.724C283.383 57.476 283.127 57.132 282.975 56.692C282.823 56.252 282.747 55.744 282.747 55.168V51.676H283.767V54.88C283.767 55.168 283.783 55.452 283.815 55.732C283.855 56.004 283.931 56.252 284.043 56.476C284.155 56.692 284.319 56.868 284.535 57.004C284.751 57.132 285.039 57.196 285.399 57.196C285.855 57.196 286.219 57.084 286.491 56.86C286.771 56.636 286.971 56.336 287.091 55.96C287.219 55.584 287.283 55.168 287.283 54.712V51.676H288.303V58C288.303 58.456 288.243 58.86 288.123 59.212C288.003 59.564 287.823 59.86 287.583 60.1C287.343 60.34 287.051 60.52 286.707 60.64C286.371 60.768 285.979 60.832 285.531 60.832ZM296.442 58.096C295.906 58.096 295.398 58.024 294.918 57.88C294.446 57.728 294.042 57.484 293.706 57.148C293.37 56.804 293.142 56.348 293.022 55.78H294.114C294.226 56.14 294.406 56.42 294.654 56.62C294.91 56.82 295.202 56.96 295.53 57.04C295.858 57.112 296.186 57.148 296.514 57.148C296.842 57.148 297.146 57.104 297.426 57.016C297.714 56.92 297.946 56.768 298.122 56.56C298.306 56.352 298.398 56.084 298.398 55.756C298.398 55.5 298.35 55.292 298.254 55.132C298.166 54.972 298.038 54.844 297.87 54.748C297.71 54.644 297.518 54.56 297.294 54.496C296.998 54.4 296.682 54.32 296.346 54.256C296.01 54.192 295.678 54.116 295.35 54.028C295.03 53.94 294.73 53.828 294.45 53.692C294.298 53.612 294.15 53.516 294.006 53.404C293.87 53.284 293.75 53.148 293.646 52.996C293.55 52.836 293.47 52.656 293.406 52.456C293.35 52.256 293.322 52.036 293.322 51.796C293.322 51.436 293.378 51.124 293.49 50.86C293.602 50.596 293.754 50.372 293.946 50.188C294.138 50.004 294.362 49.856 294.618 49.744C294.874 49.632 295.146 49.552 295.434 49.504C295.73 49.448 296.026 49.42 296.322 49.42C296.81 49.42 297.266 49.496 297.69 49.648C298.122 49.792 298.478 50.028 298.758 50.356C299.046 50.684 299.202 51.128 299.226 51.688H298.206C298.166 51.352 298.054 51.088 297.87 50.896C297.686 50.704 297.458 50.568 297.186 50.488C296.914 50.408 296.626 50.368 296.322 50.368C296.098 50.368 295.87 50.388 295.638 50.428C295.414 50.468 295.206 50.54 295.014 50.644C294.83 50.74 294.682 50.876 294.57 51.052C294.458 51.22 294.402 51.436 294.402 51.7C294.402 51.908 294.438 52.092 294.51 52.252C294.59 52.412 294.694 52.548 294.822 52.66C294.958 52.764 295.106 52.852 295.266 52.924C295.65 53.084 296.074 53.204 296.538 53.284C297.01 53.356 297.45 53.464 297.858 53.608C298.098 53.688 298.318 53.788 298.518 53.908C298.718 54.028 298.886 54.168 299.022 54.328C299.166 54.488 299.274 54.672 299.346 54.88C299.426 55.08 299.466 55.308 299.466 55.564C299.466 56.028 299.386 56.424 299.226 56.752C299.066 57.072 298.846 57.332 298.566 57.532C298.286 57.732 297.962 57.876 297.594 57.964C297.234 58.052 296.85 58.096 296.442 58.096ZM303.754 60.832C303.266 60.832 302.794 60.764 302.338 60.628C301.89 60.492 301.486 60.256 301.126 59.92L301.57 59.116C301.882 59.364 302.214 59.56 302.566 59.704C302.926 59.848 303.302 59.92 303.694 59.92C304.35 59.92 304.818 59.728 305.098 59.344C305.386 58.968 305.53 58.488 305.53 57.904V57.148C305.386 57.364 305.202 57.544 304.978 57.688C304.762 57.824 304.522 57.928 304.258 58C303.994 58.064 303.722 58.096 303.442 58.096C302.818 58.096 302.326 57.972 301.966 57.724C301.606 57.476 301.35 57.132 301.198 56.692C301.046 56.252 300.97 55.744 300.97 55.168V51.676H301.99V54.88C301.99 55.168 302.006 55.452 302.038 55.732C302.078 56.004 302.154 56.252 302.266 56.476C302.378 56.692 302.542 56.868 302.758 57.004C302.974 57.132 303.262 57.196 303.622 57.196C304.078 57.196 304.442 57.084 304.714 56.86C304.994 56.636 305.194 56.336 305.314 55.96C305.442 55.584 305.506 55.168 305.506 54.712V51.676H306.526V58C306.526 58.456 306.466 58.86 306.346 59.212C306.226 59.564 306.046 59.86 305.806 60.1C305.566 60.34 305.274 60.52 304.93 60.64C304.594 60.768 304.202 60.832 303.754 60.832ZM310.434 58.072C310.146 58.072 309.854 58.044 309.558 57.988C309.27 57.932 308.998 57.836 308.742 57.7C308.494 57.564 308.286 57.38 308.118 57.148C307.95 56.916 307.842 56.628 307.794 56.284H308.826C308.906 56.5 309.034 56.676 309.21 56.812C309.394 56.94 309.598 57.032 309.822 57.088C310.054 57.144 310.274 57.172 310.482 57.172C310.61 57.172 310.758 57.164 310.926 57.148C311.094 57.132 311.254 57.096 311.406 57.04C311.566 56.976 311.694 56.884 311.79 56.764C311.894 56.644 311.946 56.476 311.946 56.26C311.946 56.1 311.91 55.968 311.838 55.864C311.766 55.76 311.666 55.676 311.538 55.612C311.41 55.54 311.254 55.488 311.07 55.456C310.694 55.376 310.29 55.3 309.858 55.228C309.434 55.156 309.058 55.02 308.73 54.82C308.618 54.748 308.514 54.668 308.418 54.58C308.33 54.484 308.254 54.38 308.19 54.268C308.126 54.148 308.074 54.02 308.034 53.884C308.002 53.74 307.986 53.584 307.986 53.416C307.986 53.104 308.046 52.836 308.166 52.612C308.294 52.38 308.47 52.192 308.694 52.048C308.918 51.896 309.174 51.784 309.462 51.712C309.758 51.64 310.074 51.604 310.41 51.604C310.826 51.604 311.198 51.672 311.526 51.808C311.862 51.936 312.138 52.128 312.354 52.384C312.57 52.632 312.698 52.94 312.738 53.308H311.79C311.734 53.076 311.582 52.888 311.334 52.744C311.086 52.592 310.77 52.516 310.386 52.516C310.258 52.516 310.114 52.528 309.954 52.552C309.794 52.568 309.642 52.608 309.498 52.672C309.354 52.728 309.234 52.816 309.138 52.936C309.042 53.048 308.994 53.2 308.994 53.392C308.994 53.568 309.038 53.716 309.126 53.836C309.222 53.956 309.354 54.052 309.522 54.124C309.69 54.196 309.882 54.256 310.098 54.304C310.378 54.36 310.686 54.42 311.022 54.484C311.358 54.54 311.622 54.6 311.814 54.664C312.07 54.744 312.282 54.856 312.45 55C312.626 55.144 312.754 55.316 312.834 55.516C312.922 55.716 312.966 55.948 312.966 56.212C312.966 56.588 312.89 56.896 312.738 57.136C312.594 57.376 312.398 57.564 312.15 57.7C311.902 57.836 311.626 57.932 311.322 57.988C311.026 58.044 310.73 58.072 310.434 58.072ZM316.612 58.072C315.948 58.072 315.48 57.892 315.208 57.532C314.944 57.172 314.812 56.66 314.812 55.996V52.576H313.78V51.676H314.812V49.78H315.832V51.676H317.776V52.576H315.832V55.864C315.832 56.104 315.852 56.324 315.892 56.524C315.932 56.716 316.016 56.872 316.144 56.992C316.272 57.104 316.464 57.164 316.72 57.172C316.904 57.172 317.064 57.14 317.2 57.076C317.344 57.012 317.464 56.936 317.56 56.848L318.004 57.592C317.868 57.704 317.724 57.796 317.572 57.868C317.428 57.94 317.276 57.992 317.116 58.024C316.964 58.056 316.796 58.072 316.612 58.072ZM321.729 58.072C321.057 58.072 320.501 57.936 320.061 57.664C319.621 57.384 319.293 57 319.077 56.512C318.861 56.024 318.753 55.468 318.753 54.844C318.753 54.212 318.865 53.656 319.089 53.176C319.321 52.688 319.657 52.304 320.097 52.024C320.537 51.744 321.077 51.604 321.717 51.604C322.213 51.604 322.637 51.7 322.989 51.892C323.349 52.076 323.645 52.324 323.877 52.636C324.109 52.948 324.277 53.292 324.381 53.668C324.485 54.036 324.529 54.408 324.513 54.784C324.505 54.856 324.497 54.928 324.489 55C324.489 55.072 324.485 55.144 324.477 55.216H319.785C319.817 55.584 319.909 55.916 320.061 56.212C320.213 56.508 320.429 56.744 320.709 56.92C320.989 57.088 321.337 57.172 321.753 57.172C321.961 57.172 322.169 57.148 322.377 57.1C322.593 57.044 322.785 56.952 322.953 56.824C323.129 56.696 323.253 56.524 323.325 56.308H324.369C324.273 56.716 324.093 57.052 323.829 57.316C323.565 57.572 323.249 57.764 322.881 57.892C322.513 58.012 322.129 58.072 321.729 58.072ZM319.809 54.328H323.469C323.461 53.968 323.381 53.652 323.229 53.38C323.077 53.108 322.869 52.896 322.605 52.744C322.349 52.592 322.041 52.516 321.681 52.516C321.289 52.516 320.957 52.6 320.685 52.768C320.421 52.936 320.217 53.156 320.073 53.428C319.929 53.7 319.841 54 319.809 54.328ZM325.872 58V51.676H326.856L326.904 52.432C327.04 52.24 327.192 52.084 327.36 51.964C327.536 51.844 327.728 51.756 327.936 51.7C328.152 51.636 328.38 51.604 328.62 51.604C329.06 51.604 329.416 51.7 329.688 51.892C329.96 52.076 330.164 52.32 330.3 52.624C330.444 52.408 330.608 52.224 330.792 52.072C330.984 51.92 331.196 51.804 331.428 51.724C331.668 51.644 331.932 51.604 332.22 51.604C332.684 51.604 333.056 51.704 333.336 51.904C333.624 52.104 333.832 52.376 333.96 52.72C334.088 53.056 334.152 53.436 334.152 53.86V58H333.132V54.376C333.132 54.168 333.12 53.956 333.096 53.74C333.08 53.524 333.032 53.324 332.952 53.14C332.872 52.948 332.752 52.796 332.592 52.684C332.44 52.564 332.224 52.504 331.944 52.504C331.68 52.504 331.456 52.568 331.272 52.696C331.096 52.816 330.952 52.98 330.84 53.188C330.728 53.396 330.648 53.62 330.6 53.86C330.552 54.092 330.528 54.324 330.528 54.556V58H329.508V54.364C329.508 54.164 329.496 53.956 329.472 53.74C329.456 53.524 329.412 53.324 329.34 53.14C329.276 52.948 329.164 52.796 329.004 52.684C328.852 52.564 328.64 52.504 328.368 52.504C327.984 52.504 327.684 52.616 327.468 52.84C327.252 53.056 327.1 53.324 327.012 53.644C326.932 53.956 326.892 54.264 326.892 54.568V58H325.872Z" fill="#E3E3E3"/>
<defs>
<filter id="filter0_d_2012_111" x="82.7222" y="1" width="285.595" height="43" filterUnits="userSpaceOnUse" color-interpolation-filters="sRGB">
<feFlood flood-opacity="0" result="BackgroundImageFix"/>
<feColorMatrix in="SourceAlpha" type="matrix" values="0 0 0 0 0 0 0 0 0 0 0 0 0 0 0 0 0 0 127 0" result="hardAlpha"/>
<feOffset dy="4"/>
<feGaussianBlur stdDeviation="2"/>
<feComposite in2="hardAlpha" operator="out"/>
<feColorMatrix type="matrix" values="0 0 0 0 0 0 0 0 0 0 0 0 0 0 0 0 0 0 0.25 0"/>
<feBlend mode="normal" in2="BackgroundImageFix" result="effect1_dropShadow_2012_111"/>
<feBlend mode="normal" in="SourceGraphic" in2="effect1_dropShadow_2012_111" result="shape"/>
</filter>
</defs>
</svg>
